<?xml version="1.0" encoding="UTF-8"?>
<svg
  id="fe-logo"
  xmlns="http://www.w3.org/2000/svg"
  viewBox="0 0 4000 4000"
  aria-labelledby="t"
  role="img">
  <title id="t">Future Engine</title>

  <!-- Globe and river both in the same color -->
  <g fill="#ffffff">
    <path d="M 1957.7276,52.916654 C 1891.941,54.424541 1825.604,59.268252 1758.8999,67.590603 691.6343,200.74825 -65.612727,1173.87 67.542757,2241.1183 200.69824,3308.3666 1173.8325,4065.5963 2241.0981,3932.4386 3308.3638,3799.281 4065.6108,2826.1592 3932.4553,1758.9109 3807.622,758.3656 2944.5267,30.298296 1957.7276,52.916654 Z m 42.0697,954.707646 c 1051.5364,-0.085 1904.0105,443.7719 1904.0545,991.3797 0.044,547.6078 -852.3591,991.5995 -1903.8954,991.684 C 948.42005,2990.773 95.945911,2546.9184 95.901933,1999.3106 95.857919,1451.7026 948.26098,1007.7087 1999.7973,1007.6243 Z"/>
    <path d="m 2081.646,1027.3898 c 59.8807,2.2823 176.3772,2.439 191.7085,18.9923 -241.4741,71.3594 -487.2615,140.1058 -710.9454,257.8217 -87.7888,49.0073 -88.2922,110.4715 15.2214,132.0646 494.645,116.1045 1018.4539,102.9873 1495.86,291.8229 156.846,61.7608 321.1048,182.8725 318.0373,363.1765 -6.0553,171.2978 -101.9859,321.9799 -183.1151,469.3539 -42.7319,63.5838 -80.0479,132.1176 -128.1591,192.589 -557.6581,200.1366 -1171.3032,228.7025 -1750.9955,115.3034 -168.6379,-34.7519 -339.62372,-83.2218 -495.09757,-151.0768 325.55797,-193.5055 655.60557,-389.1873 977.53417,-592.1628 52.3159,-36.1494 126.8877,-82.0517 66.397,-143.2398 -95.8008,-83.5812 -228.6471,-112.7639 -354.0144,-143.7861 -220.943,-58.5174 -450.7712,-104.5781 -650.82113,-219.6164 -117.64446,-71.7709 -29.42294,-194.9302 64.30387,-245.6622 280.16766,-158.2778 599.07706,-227.6945 908.66406,-304.3074 78.0607,-15.55 151.3023,-36.0792 235.4219,-41.2728 z"/>
  </g>
</svg>
